# xmcd
#
# Track frame offsets: 
#        150
#        24241
#        36675
#        45915
#        89110
#        107524
#        130339
#        149638
#        173372
#        197384
#        219553
#        234291
#
# Disc length: 3351 seconds
#
# Revision: 0
# Processed by: cddbd v1.5.2PL0 Copyright (c) Steve Scherf et al.
# Submitted via: ExactAudioCopy v0.99pb5
#
DISCID=9f0d150c
DTITLE=Eduard von Beinum & London Philharmonic Orchestra / The Art of 
DTITLE=Eduard von Beinum - Vol.1 (CD01) - Beethoven, Mozart
DYEAR=1952
DGENRE=Classical
TTITLE0=Beethoven : Die Geschopfe des Prometheus, op.43 - Overture: Ad
TTITLE0=agio - Allegro molto con brio
TTITLE1=Beethoven : Die Geschopfe des Prometheus, op.43 - Adagio - All
TTITLE1=egro con brio
TTITLE2=Beethoven : Die Geschopfe des Prometheus, op.43 - Allegro viva
TTITLE2=ce
TTITLE3=Beethoven : Die Geschopfe des Prometheus, op.43 - Adagio - And
TTITLE3=ante quasi allegretto
TTITLE4=Beethoven : Die Geschopfe des Prometheus, op.43 - Adagio
TTITLE5=Beethoven : Die Geschopfe des Prometheus, op.43 - Andante
TTITLE6=Beethoven : Die Geschopfe des Prometheus, op.43 - Andantino - 
TTITLE6=Adagio - Allegro
TTITLE7=Beethoven : Die Geschopfe des Prometheus, op.43 - Finale: Alle
TTITLE7=gretto
TTITLE8=Mozart : Symphony No.35 in D major, KV 385 "Haffner" - I. Alle
TTITLE8=gro con spirito
TTITLE9=Mozart : Symphony No.35 in D major, KV 385 "Haffner" - II. And
TTITLE9=ante
TTITLE10=Mozart : Symphony No.35 in D major, KV 385 "Haffner" - III. M
TTITLE10=enuetto
TTITLE11=Mozart : Symphony No.35 in D major, KV 385 "Haffner" - IV. Fi
TTITLE11=nale: Presto
EXTD=
EXTT0=
EXTT1=
EXTT2=
EXTT3=
EXTT4=
EXTT5=
EXTT6=
EXTT7=
EXTT8=
EXTT9=
EXTT10=
EXTT11=
PLAYORDER=
